<svg id="Layer_1" data-name="Layer 1" xmlns="http://www.w3.org/2000/svg" viewBox="0 0 233 352"><defs><style>.cls-1{fill:#575757;}.cls-2{fill:#a5d6c2;}.cls-3{fill:#3cd697;}.cls-4{fill:#2ea675;}</style></defs><title>darknaviGitorIcon</title><rect class="cls-1" x="177.96" y="72.02" width="17.54" height="120.56"/><rect class="cls-1" x="37.67" y="155.45" width="17.54" height="122.62"/><rect class="cls-1" x="116.58" y="119.15" width="17.54" height="120.56" transform="translate(-92.99 164.07) rotate(-51.04)"/><path class="cls-1" d="M44.53,95.37v59c-9.85-.27-19.12-2.55-26.26-6.5S7,138.89,6.75,133.61V95.37H44.53m3-3H3.74v41.42h0c.76,13.12,19.85,23.63,42.75,23.63l1,0v-65Z"/><path class="cls-1" d="M46.48,92.37H90.28v41.42h0c-.76,13.12-19.88,23.63-42.78,23.63l-1,0Z"/><ellipse class="cls-2" cx="47.03" cy="92.85" rx="43.29" ry="24.89"/><path class="cls-1" d="M47.53,285.26H3.74v41.42h0c.76,13.12,19.88,23.63,42.78,23.63l1,0Z"/><path class="cls-1" d="M46.48,285.26H90.28v41.42h0c-.76,13.12-19.84,23.63-42.73,23.63l-1,0Z"/><ellipse class="cls-3" cx="47.03" cy="286.19" rx="43.29" ry="24.89"/><path class="cls-1" d="M187.82,182.24H144v41.42h0c.76,13.12,19.87,23.63,42.76,23.63l1,0Z"/><path class="cls-1" d="M227.57,185.24v38.29c-.32,5.26-4.42,10.32-11.53,14.24s-16.41,6.23-26.26,6.5v-59h37.79m3-3H186.77v65l1,0c22.9,0,42-10.51,42.76-23.63h0V182.24Z"/><ellipse class="cls-4" cx="187.29" cy="183.14" rx="43.32" ry="24.89"/><path class="cls-1" d="M187.82,28.8H144V70.22h0c.76,13.12,19.86,23.63,42.76,23.63l1,0Z"/><path class="cls-1" d="M186.77,28.8h43.79V70.22h0c-.76,13.12-19.86,23.63-42.76,23.63l-1,0Z"/><ellipse class="cls-3" cx="187.32" cy="28.97" rx="43.3" ry="24.89"/></svg>