<svg id="Layer_1" data-name="Layer 1" xmlns="http://www.w3.org/2000/svg" viewBox="0 0 456 476"><defs><style>.cls-1{fill:#575757;}.cls-2{fill:#3cd697;}.cls-3{fill:#a5d6c2;}.cls-4{fill:#2ea675;}</style></defs><title>darknaviGitorLogo_1</title><path class="cls-1" d="M12.17,415.14l35.11,47.56V415.14h6.6v58.51H47L11.92,426.18v47.48H5.23V415.14Z"/><path class="cls-1" d="M108.63,458.69H76.78l-6.52,15H63.16L89.4,415.14h6.94l26.16,58.51h-7.27ZM106,452.51,92.66,422.42,79.54,452.51Z"/><path class="cls-1" d="M126.68,415.14l20.14,51,20.23-51h7l-23.91,58.51h-6.94l-23.74-58.51Z"/><path class="cls-1" d="M190.12,415.14v58.51h-6.69V415.14Z"/><path class="cls-2" d="M248.63,445.07h5.93V466.3a36.08,36.08,0,0,1-21.73,7.61c-17,0-30.51-13-30.51-29.51S215.95,415,233.17,415a33.13,33.13,0,0,1,21.57,8l-3.84,4.85a26.89,26.89,0,0,0-17.72-6.77c-13.37,0-24.07,10.36-24.07,23.32s10.78,23.4,24.16,23.4a28,28,0,0,0,15.38-4.93Z"/><path class="cls-2" d="M277.46,415.14v58.51h-6.69V415.14Z"/><path class="cls-2" d="M332.13,415.14v6.19H313v52.33H306.3V421.33H287.24v-6.19Z"/><path class="cls-1" d="M393.81,444.4c0,16.47-13.54,29.51-30.59,29.51s-30.68-13-30.68-29.51S346.08,415,363.22,415,393.81,427.93,393.81,444.4Zm-54.5,0c0,13,10.87,23.4,23.91,23.4a23.32,23.32,0,1,0,0-46.64C350.18,421.16,339.31,431.44,339.31,444.4Z"/><path class="cls-1" d="M444.29,473.66,432,454.93c-1.17.08-2.42.17-3.76.17H412.7v18.56H406V415.14h22.23c14.63,0,23.07,7.19,23.07,19.64,0,9.61-4.76,16.22-13.21,18.89l13.79,20Zm-16-24.74c10.62,0,16.63-4.76,16.63-14,0-8.94-6-13.62-16.63-13.62H412.7v27.58Z"/><rect class="cls-1" x="290.96" y="74.02" width="17.54" height="120.56"/><rect class="cls-1" x="150.67" y="157.45" width="17.54" height="122.62"/><rect class="cls-1" x="229.58" y="121.15" width="17.54" height="120.56" transform="translate(-52.59 252.68) rotate(-51.04)"/><path class="cls-1" d="M157.53,97.37v59c-9.85-.27-19.12-2.55-26.26-6.5s-11.22-9-11.53-14.28V97.37h37.79m3-3H116.74v41.42h0c.76,13.12,19.85,23.63,42.75,23.63l1,0v-65Z"/><path class="cls-1" d="M159.48,94.37h43.79v41.42h0c-.76,13.12-19.88,23.63-42.78,23.63l-1,0Z"/><ellipse class="cls-3" cx="160.03" cy="94.85" rx="43.29" ry="24.89"/><path class="cls-1" d="M160.53,287.26H116.74v41.42h0c.76,13.12,19.88,23.63,42.78,23.63l1,0Z"/><path class="cls-1" d="M159.48,287.26h43.79v41.42h0c-.76,13.12-19.84,23.63-42.73,23.63l-1,0Z"/><ellipse class="cls-2" cx="160.03" cy="288.19" rx="43.29" ry="24.89"/><path class="cls-1" d="M300.82,184.24H257v41.42h0c.76,13.12,19.87,23.63,42.76,23.63l1,0Z"/><path class="cls-1" d="M340.57,187.24v38.29c-.32,5.26-4.42,10.32-11.53,14.24s-16.41,6.23-26.26,6.5v-59h37.79m3-3H299.77v65l1,0c22.9,0,42-10.51,42.76-23.63h0V184.24Z"/><ellipse class="cls-4" cx="300.29" cy="185.14" rx="43.32" ry="24.89"/><path class="cls-1" d="M300.82,30.8H257V72.22h0c.76,13.12,19.86,23.63,42.76,23.63l1,0Z"/><path class="cls-1" d="M299.77,30.8h43.79V72.22h0c-.76,13.12-19.86,23.63-42.76,23.63l-1,0Z"/><ellipse class="cls-2" cx="300.32" cy="30.97" rx="43.3" ry="24.89"/></svg>