<svg id="Layer_1" data-name="Layer 1" xmlns="http://www.w3.org/2000/svg" viewBox="0 0 455.33 65.33"><defs><style>.cls-1{fill:#575757;}.cls-2{fill:#3cd697;}</style></defs><title>darknaviGitorWord</title><path class="cls-1" d="M11.51,5.14,46.61,52.71V5.14h6.6V63.66H46.36L11.25,16.18V63.66H4.57V5.14Z"/><path class="cls-1" d="M108,48.69H76.11l-6.52,15H62.49L88.74,5.14h6.94l26.16,58.51h-7.27Zm-2.67-6.19L92,12.42,78.87,42.51Z"/><path class="cls-1" d="M126,5.14l20.14,51,20.23-51h7L149.5,63.66h-6.94L118.83,5.14Z"/><path class="cls-1" d="M189.45,5.14V63.66h-6.69V5.14Z"/><path class="cls-2" d="M248,35.07h5.93V56.3a36.08,36.08,0,0,1-21.73,7.61c-17,0-30.51-13-30.51-29.51S215.28,5,232.5,5a33.13,33.13,0,0,1,21.57,8l-3.84,4.85a26.89,26.89,0,0,0-17.72-6.77c-13.37,0-24.07,10.36-24.07,23.32s10.78,23.4,24.16,23.4A28,28,0,0,0,248,52.87Z"/><path class="cls-2" d="M276.8,5.14V63.66h-6.69V5.14Z"/><path class="cls-2" d="M331.46,5.14v6.19H312.32V63.66h-6.69V11.33H286.57V5.14Z"/><path class="cls-1" d="M393.14,34.4c0,16.47-13.54,29.51-30.59,29.51s-30.68-13-30.68-29.51S345.42,5,362.55,5,393.14,17.93,393.14,34.4Zm-54.5,0c0,13,10.87,23.4,23.91,23.4a23.6,23.6,0,0,0,23.74-23.4,23.46,23.46,0,0,0-23.74-23.24C349.51,11.16,338.64,21.44,338.64,34.4Z"/><path class="cls-1" d="M443.63,63.66,431.34,44.93c-1.17.08-2.42.17-3.76.17H412V63.66h-6.69V5.14h22.23c14.63,0,23.07,7.19,23.07,19.64,0,9.61-4.76,16.22-13.21,18.89l13.79,20Zm-16-24.74c10.62,0,16.63-4.76,16.63-14,0-8.94-6-13.62-16.63-13.62H412V38.91Z"/></svg>